# xmcd
#
# Track frame offsets: 
#        150
#        26292
#        50414
#        71200
#        83391
#        96544
#        112987
#        130898
#        142778
#        158087
#        175734
#        193257
#        208417
#        224471
#        253243
#        267673
#        282991
#
# Disc length: 3864 seconds
#
# Revision: 0
# Processed by: cddbd v1.5.2PL0 Copyright (c) Steve Scherf et al.
# Submitted via: ExactAudioCopy v0.95b3
#
DISCID=050f1611
DTITLE=Various  - Monterey Pop Festival 1967 Vol. 3  FLAC
DYEAR=1900
DGENRE=
TTITLE0=Country Joe and the Fish \\ Not So Sweet Martha Lorrane
TTITLE1=Country Joe and the Fish \\ Fixin' to Die Rag
TTITLE2=Country Joe and the Fish \\ Please Don't Drop that H-Bomb on M
TTITLE2=e
TTITLE3=Canned Heat \\ Rollin'and Tumblin'
TTITLE4=Canned Heat \\ Bull Frog Blues
TTITLE5=Hugh Masakela \\ Healing Song
TTITLE6=Booker T and the MG's \\ Booker Lou
TTITLE7=Booker T and the MG's \\ Hip Hug Her
TTITLE8=Mamas and Papas \\ Straight Shooter
TTITLE9=Mamas and Papas \\ Got a Feelin'
TTITLE10=Mamas and Papas \\ California Dreamin'
TTITLE11=Mamas and Papas \\ I Call Your Name
TTITLE12=Mamas and Papas \\ Spanish Harlem
TTITLE13=Mamas and Papas \\ Somebody Groovy
TTITLE14=Mamas and Papas \\ Monday, Monday
TTITLE15=Mamas and Papas \\ Dancing in the Street
TTITLE16=Mamas and Papas \\ Instrumental
EXTD=
EXTT0=
EXTT1=
EXTT2=
EXTT3=
EXTT4=
EXTT5=
EXTT6=
EXTT7=
EXTT8=
EXTT9=
EXTT10=
EXTT11=
EXTT12=
EXTT13=
EXTT14=
EXTT15=
EXTT16=
PLAYORDER=
